D:\school\WTK\thesis\model\3dpredictsim\Results\MuscleModel\Fal_s1_bCst_ig24_v2_GRF.mot
nRows=27
nColumns=19

name D:\school\WTK\thesis\model\3dpredictsim\Results\MuscleModel\Fal_s1_bCst_ig24_v2_GRF.mot
datacolumns 19
datarows 27
range 0.0000000000 0.2879829486
endheader
time 	ground_force_vx	ground_force_vy	ground_force_vz	ground_force_px	ground_force_py	ground_force_pz	1_ground_force_vx	1_ground_force_vy	1_ground_force_vz	1_ground_force_px	1_ground_force_py	1_ground_force_pz	ground_torque_x	ground_torque_y	ground_torque_z	1_ground_torque_x	1_ground_torque_y	1_ground_torque_z
        0.0000000000	      -48.1774561387	       38.0711007540	       15.2849339593	        0.1828641322	        0.0000000000	        0.0412733299	       97.0829711176	      536.2369028184	       -0.8477352653	       -0.3044235514	        0.0000000000	       -0.0387099975	        0.0000000000	        0.0000000000	        0.0000000000	        0.0000000000	        0.0000000000	        0.0000000000	
        0.0110762673	      -85.9609339186	       94.4322662996	       46.4506522619	        0.1905334310	        0.0000000000	        0.0390002230	       88.1735899014	      475.1514124707	       -3.6144492977	       -0.3021244457	        0.0000000000	       -0.0382220799	        0.0000000000	        0.0000000000	        0.0000000000	        0.0000000000	        0.0000000000	        0.0000000000	
        0.0221525345	      -36.1477087622	      203.5619374793	       29.6080372779	        0.1953189146	        0.0000000000	        0.0368285798	       76.3570145149	      399.2402372954	       -5.4555234245	       -0.2987178319	        0.0000000000	       -0.0372627321	        0.0000000000	        0.0000000000	        0.0000000000	        0.0000000000	        0.0000000000	        0.0000000000	
        0.0332288018	      -31.4261784242	      324.3758196779	        3.5762455490	        0.1975815448	        0.0000000000	        0.0362169021	       62.1575394948	      322.6618862976	       -3.6932967645	       -0.2938768903	        0.0000000000	       -0.0355737780	        0.0000000000	        0.0000000000	        0.0000000000	        0.0000000000	        0.0000000000	        0.0000000000	
        0.0443050690	      -44.3441545298	      447.1822123385	       -2.3401529654	        0.2009004329	        0.0000000000	        0.0368995865	       38.1364533250	      237.1487702613	       -4.1506255487	       -0.2858893860	        0.0000000000	       -0.0323701537	        0.0000000000	        0.0000000000	        0.0000000000	        0.0000000000	        0.0000000000	        0.0000000000	
        0.0553813363	      -69.3924259812	      583.8028085576	       -7.6709393456	        0.2084356976	        0.0000000000	        0.0392702128	       16.3794708538	      154.9546573127	       -6.5626157138	       -0.2720205932	        0.0000000000	       -0.0260331616	        0.0000000000	        0.0000000000	        0.0000000000	        0.0000000000	        0.0000000000	        0.0000000000	
        0.0664576035	      -86.7497202271	      687.7117407621	      -11.1562738253	        0.2145565398	        0.0000000000	        0.0411395686	        5.5227869449	      118.8351075420	       -8.6833400522	       -0.2658952930	        0.0000000000	       -0.0228997003	        0.0000000000	        0.0000000000	        0.0000000000	        0.0000000000	        0.0000000000	        0.0000000000	
        0.0775338708	      -91.8790804403	      734.4258144048	      -12.4950743452	        0.2190228793	        0.0000000000	        0.0423998846	        3.0304953629	       89.8761792411	       -9.3049350158	       -0.2654028606	        0.0000000000	       -0.0229882889	        0.0000000000	        0.0000000000	        0.0000000000	        0.0000000000	        0.0000000000	        0.0000000000	
        0.0886101380	      -88.3840686371	      741.2742827383	      -13.1035395569	        0.2224974901	        0.0000000000	        0.0432366227	       -1.8920876474	       56.8159988694	       -8.7927870067	       -0.2650406084	        0.0000000000	       -0.0230555031	        0.0000000000	        0.0000000000	        0.0000000000	        0.0000000000	        0.0000000000	        0.0000000000	
        0.0996864053	      -81.9777538321	      731.5613416634	      -12.4510438550	        0.2257468263	        0.0000000000	        0.0437883847	       -7.0811857162	       21.9787558081	       -4.2757673254	       -0.2653740472	        0.0000000000	       -0.0227812583	        0.0000000000	        0.0000000000	        0.0000000000	        0.0000000000	        0.0000000000	        0.0000000000	
        0.1107626725	      -74.2791476795	      720.7412010866	      -12.7993811771	        0.2292796379	        0.0000000000	        0.0440702158	        0.1120910111	       -0.1100073054	        0.0040199101	        0.0000000000	        0.0000000000	        0.0000000000	        0.0000000000	        0.0000000000	        0.0000000000	        0.0000000000	        0.0000000000	        0.0000000000	
        0.1218389398	      -65.0878820513	      703.1746843211	      -13.4816892239	        0.2331230840	        0.0000000000	        0.0442214488	        0.0008575950	       -0.0006929293	       -0.0000230761	        0.0000000000	        0.0000000000	        0.0000000000	        0.0000000000	        0.0000000000	        0.0000000000	        0.0000000000	        0.0000000000	        0.0000000000	
        0.1329152070	      -58.4678550883	      685.9997158090	      -14.5135398877	        0.2380753172	        0.0000000000	        0.0441755246	        0.0004322917	       -0.0003019131	       -0.0000197694	        0.0000000000	        0.0000000000	        0.0000000000	        0.0000000000	        0.0000000000	        0.0000000000	        0.0000000000	        0.0000000000	        0.0000000000	
        0.1439914743	      -52.5259865618	      667.6048010326	      -15.5226739532	        0.2434551263	        0.0000000000	        0.0440278066	        0.0043345605	       -0.0027080816	       -0.0002398258	        0.0000000000	        0.0000000000	        0.0000000000	        0.0000000000	        0.0000000000	        0.0000000000	        0.0000000000	        0.0000000000	        0.0000000000	
        0.1550677416	      -46.0132133310	      645.9981516548	      -16.4738349309	        0.2484852835	        0.0000000000	        0.0439395092	       -0.0236240201	        0.0134927451	        0.0014759780	        0.0000000000	        0.0000000000	        0.0000000000	        0.0000000000	        0.0000000000	        0.0000000000	        0.0000000000	        0.0000000000	        0.0000000000	
        0.1661440088	      -39.3884064859	      624.2177492593	      -17.1956873834	        0.2531361044	        0.0000000000	        0.0439273420	       -0.0377097226	        0.0199712673	        0.0025865219	        0.0000000000	        0.0000000000	        0.0000000000	        0.0000000000	        0.0000000000	        0.0000000000	        0.0000000000	        0.0000000000	        0.0000000000	
        0.1772202761	      -33.2731114618	      604.5463200463	      -17.8657614319	        0.2576470371	        0.0000000000	        0.0439615645	       -0.0244494249	        0.0121475858	        0.0018074551	        0.0000000000	        0.0000000000	        0.0000000000	        0.0000000000	        0.0000000000	        0.0000000000	        0.0000000000	        0.0000000000	        0.0000000000	
        0.1882965433	      -28.0081664823	      588.6197228860	      -18.5611648883	        0.2623400990	        0.0000000000	        0.0440063936	       -0.0180306338	        0.0084833375	        0.0014196820	        0.0000000000	        0.0000000000	        0.0000000000	        0.0000000000	        0.0000000000	        0.0000000000	        0.0000000000	        0.0000000000	        0.0000000000	
        0.1993728106	      -23.8447509094	      576.7646944721	      -19.1094188208	        0.2673002946	        0.0000000000	        0.0440376323	       -0.0172718807	        0.0077575005	        0.0014307705	        0.0000000000	        0.0000000000	        0.0000000000	        0.0000000000	        0.0000000000	        0.0000000000	        0.0000000000	        0.0000000000	        0.0000000000	
        0.2104490778	      -21.1729114744	      568.5471805947	      -19.1759210957	        0.2723477567	        0.0000000000	        0.0440544200	       -0.0216932351	        0.0093609381	        0.0018668654	        0.0000000000	        0.0000000000	        0.0000000000	        0.0000000000	        0.0000000000	        0.0000000000	        0.0000000000	        0.0000000000	        0.0000000000	
        0.2215253451	      -19.3095500284	      563.2281430843	      -18.8291949036	        0.2773387311	        0.0000000000	        0.0440582684	       -0.0339787909	        0.0141645315	        0.0029940479	        0.0000000000	        0.0000000000	        0.0000000000	        0.0000000000	        0.0000000000	        0.0000000000	        0.0000000000	        0.0000000000	        0.0000000000	
        0.2326016123	      -17.4075170119	      560.1967606925	      -18.6458555449	        0.2825110268	        0.0000000000	        0.0440277737	       -0.0615360713	        0.0248999910	        0.0054879440	        0.0000000000	        0.0000000000	        0.0000000000	        0.0000000000	        0.0000000000	        0.0000000000	        0.0000000000	        0.0000000000	        0.0000000000	
        0.2436778796	      -15.7977578955	      557.9653389095	      -18.5593782845	        0.2878096587	        0.0000000000	        0.0439633296	       -0.1189859293	        0.0469304380	        0.0106751875	        0.0000000000	        0.0000000000	        0.0000000000	        0.0000000000	        0.0000000000	        0.0000000000	        0.0000000000	        0.0000000000	        0.0000000000	
        0.2547541468	      -14.1772241624	      556.2229023816	      -18.5723463307	        0.2932407421	        0.0000000000	        0.0438634932	       -0.2288178718	        0.0882930237	        0.0205900796	        0.0000000000	        0.0000000000	        0.0000000000	        0.0000000000	        0.0000000000	        0.0000000000	        0.0000000000	        0.0000000000	        0.0000000000	
        0.2658304141	      -12.3337511766	      553.9171175216	      -18.5555964603	        0.2986895027	        0.0000000000	        0.0437394487	       -0.4120181275	        0.1560702642	        0.0370890549	        0.0000000000	        0.0000000000	        0.0000000000	        0.0000000000	        0.0000000000	        0.0000000000	        0.0000000000	        0.0000000000	        0.0000000000	
        0.2769066813	      -10.3013050268	      550.3451224260	      -18.3416380396	        0.3040885588	        0.0000000000	        0.0436019546	       -0.6724421118	        0.2507121778	        0.0604007040	        0.0000000000	        0.0000000000	        0.0000000000	        0.0000000000	        0.0000000000	        0.0000000000	        0.0000000000	        0.0000000000	        0.0000000000	
        0.2879829486	       -7.9887404810	      545.2219334668	      -17.7823264330	        0.3094920668	        0.0000000000	        0.0434502858	       -1.0000025362	        0.3675694082	        0.0891353371	        0.0000000000	        0.0000000000	        0.0000000000	        0.0000000000	        0.0000000000	        0.0000000000	        0.0000000000	        0.0000000000	        0.0000000000	
